# xmcd
#
# Track frame offsets:
#	150
#	51032
#	76568
#	105253
#	124374
#	165720
#	203602
#	227242
#	250021
#
# Disc length: 3692 seconds
#
# Revision: 0
# Processed by: cddbd v1.5.2PL0 Copyright (c) Steve Scherf et al.
# Submitted via: EasyCDDAExtractor 10.5.1.1
#
DISCID=640e6a09
DTITLE=Putte Wickman - Wickman in Wonderland
DYEAR=1900
DGENRE=Svensk
TTITLE0=Alice In Wonderland
TTITLE1=Bohemia After Dark
TTITLE2=Remember
TTITLE3=Take it Easy, Sylvia
TTITLE4=Absolut Blues
TTITLE5=Another Gift
TTITLE6=Ginger
TTITLE7=I Just Dont Want to Run Around Anymore
TTITLE8=B' For Budwig
EXTD=
EXTT0=
EXTT1=
EXTT2=
EXTT3=
EXTT4=
EXTT5=
EXTT6=
EXTT7=
EXTT8=
PLAYORDER=
